<svg width="1461" height="982" viewBox="0 0 1461 982" fill="none" xmlns="http://www.w3.org/2000/svg">
<g clip-path="url(#clip0_173_93)">
<path d="M15 0V981.5" stroke="#7B7B7B"/>
<path d="M740 0V981.5" stroke="#7B7B7B"/>
<path d="M44 0V981.5" stroke="#7B7B7B"/>
<path d="M769 0V981.5" stroke="#7B7B7B"/>
<path d="M73 0V981.5" stroke="#7B7B7B"/>
<path d="M798 0V981.5" stroke="#7B7B7B"/>
<path d="M102 0V981.5" stroke="#7B7B7B"/>
<path d="M827 0V981.5" stroke="#7B7B7B"/>
<path d="M131 0V981.5" stroke="#7B7B7B"/>
<path d="M856 0V981.5" stroke="#7B7B7B"/>
<path d="M160 0V981.5" stroke="#7B7B7B"/>
<path d="M885 0V981.5" stroke="#7B7B7B"/>
<path d="M189 0V981.5" stroke="#7B7B7B"/>
<path d="M914 0V981.5" stroke="#7B7B7B"/>
<path d="M218 0V981.5" stroke="#7B7B7B"/>
<path d="M943 0V981.5" stroke="#7B7B7B"/>
<path d="M247 0V981.5" stroke="#7B7B7B"/>
<path d="M972 0V981.5" stroke="#7B7B7B"/>
<path d="M276 0V981.5" stroke="#7B7B7B"/>
<path d="M1001 0V981.5" stroke="#7B7B7B"/>
<path d="M305 0V981.5" stroke="#7B7B7B"/>
<path d="M1030 0V981.5" stroke="#7B7B7B"/>
<path d="M334 0V981.5" stroke="#7B7B7B"/>
<path d="M1059 0V981.5" stroke="#7B7B7B"/>
<path d="M363 0V981.5" stroke="#7B7B7B"/>
<path d="M1088 0V981.5" stroke="#7B7B7B"/>
<path d="M392 0V981.5" stroke="#7B7B7B"/>
<path d="M1117 0V981.5" stroke="#7B7B7B"/>
<path d="M421 0V981.5" stroke="#7B7B7B"/>
<path d="M1146 0V981.5" stroke="#7B7B7B"/>
<path d="M450 0V981.5" stroke="#7B7B7B"/>
<path d="M1175 0V981.5" stroke="#7B7B7B"/>
<path d="M479 0V981.5" stroke="#7B7B7B"/>
<path d="M1204 0V981.5" stroke="#7B7B7B"/>
<path d="M508 0V981.5" stroke="#7B7B7B"/>
<path d="M1233 0V981.5" stroke="#7B7B7B"/>
<path d="M537 0V981.5" stroke="#7B7B7B"/>
<path d="M1262 0V981.5" stroke="#7B7B7B"/>
<path d="M566 0V981.5" stroke="#7B7B7B"/>
<path d="M1291 0V981.5" stroke="#7B7B7B"/>
<path d="M595 0V981.5" stroke="#7B7B7B"/>
<path d="M1320 0V981.5" stroke="#7B7B7B"/>
<path d="M624 0V981.5" stroke="#7B7B7B"/>
<path d="M1349 0V981.5" stroke="#7B7B7B"/>
<path d="M653 0V981.5" stroke="#7B7B7B"/>
<path d="M1378 0V981.5" stroke="#7B7B7B"/>
<path d="M682 0V981.5" stroke="#7B7B7B"/>
<path d="M1407 0V981.5" stroke="#7B7B7B"/>
<path d="M711 0V981.5" stroke="#7B7B7B"/>
<path d="M1436 0V981.5" stroke="#7B7B7B"/>
<path d="M-28 30H1490.5" stroke="#7B7B7B"/>
<path d="M-28 505H1490.5" stroke="#7B7B7B"/>
<path d="M-28 55H1490.5" stroke="#7B7B7B"/>
<path d="M-28 530H1490.5" stroke="#7B7B7B"/>
<path d="M-28 80H1490.5" stroke="#7B7B7B"/>
<path d="M-28 555H1490.5" stroke="#7B7B7B"/>
<path d="M-28 105H1490.5" stroke="#7B7B7B"/>
<path d="M-28 580H1490.5" stroke="#7B7B7B"/>
<path d="M-28 130H1490.5" stroke="#7B7B7B"/>
<path d="M-28 605H1490.5" stroke="#7B7B7B"/>
<path d="M-28 155H1490.5" stroke="#7B7B7B"/>
<path d="M-28 630H1490.5" stroke="#7B7B7B"/>
<path d="M-28 180H1490.5" stroke="#7B7B7B"/>
<path d="M-28 655H1490.5" stroke="#7B7B7B"/>
<path d="M-28 205H1490.5" stroke="#7B7B7B"/>
<path d="M-28 680H1490.5" stroke="#7B7B7B"/>
<path d="M-28 230H1490.5" stroke="#7B7B7B"/>
<path d="M-28 705H1490.5" stroke="#7B7B7B"/>
<path d="M-28 255H1490.5" stroke="#7B7B7B"/>
<path d="M-28 730H1490.5" stroke="#7B7B7B"/>
<path d="M-28 280H1490.5" stroke="#7B7B7B"/>
<path d="M-28 755H1490.5" stroke="#7B7B7B"/>
<path d="M-28 305H1490.5" stroke="#7B7B7B"/>
<path d="M-28 780H1490.5" stroke="#7B7B7B"/>
<path d="M-28 330H1490.5" stroke="#7B7B7B"/>
<path d="M-28 805H1490.5" stroke="#7B7B7B"/>
<path d="M-28 355H1490.5" stroke="#7B7B7B"/>
<path d="M-28 830H1490.5" stroke="#7B7B7B"/>
<path d="M-28 380H1490.5" stroke="#7B7B7B"/>
<path d="M-28 855H1490.5" stroke="#7B7B7B"/>
<path d="M-28 405H1490.5" stroke="#7B7B7B"/>
<path d="M-28 880H1490.5" stroke="#7B7B7B"/>
<path d="M-28 430H1490.5" stroke="#7B7B7B"/>
<path d="M-28 905H1490.5" stroke="#7B7B7B"/>
<path d="M-28 455H1490.5" stroke="#7B7B7B"/>
<path d="M-28 930H1490.5" stroke="#7B7B7B"/>
<path d="M-28 480H1490.5" stroke="#7B7B7B"/>
<path d="M-28 955H1490.5" stroke="#7B7B7B"/>
</g>
<defs>
<clipPath id="clip0_173_93">
<rect width="1461" height="982" fill="white"/>
</clipPath>
</defs>
</svg>
